<mxfile host="app.diagrams.net" modified="2021-07-21T02:26:19.408Z" agent="5.0 (Macintosh; Intel Mac OS X 10_15_7) AppleWebKit/537.36 (KHTML, like Gecko) Chrome/91.0.4472.114 Safari/537.36" etag="YlDD26o0crrTRMCf4BPJ" version="14.9.0" type="github">
  <diagram id="T_NaOF4HCSvs0rHXY1GS" name="Page-1">
    <mxGraphModel dx="2952" dy="834" grid="0" gridSize="10" guides="1" tooltips="1" connect="1" arrows="1" fold="1" page="1" pageScale="1" pageWidth="827" pageHeight="1169" math="0" shadow="0">
      <root>
        <mxCell id="0" />
        <mxCell id="1" parent="0" />
        <mxCell id="0hItoibZD7xrab0cP2cv-1" value="预算" style="shape=cylinder3;whiteSpace=wrap;html=1;boundedLbl=1;backgroundOutline=1;size=15;" vertex="1" parent="1">
          <mxGeometry x="-840" y="210" width="100" height="70" as="geometry" />
        </mxCell>
        <mxCell id="0hItoibZD7xrab0cP2cv-2" style="edgeStyle=none;rounded=0;orthogonalLoop=1;jettySize=auto;html=1;exitX=1;exitY=0.3333333333333333;exitDx=0;exitDy=0;exitPerimeter=0;entryX=0;entryY=0.5;entryDx=0;entryDy=0;entryPerimeter=0;" edge="1" parent="1" source="0hItoibZD7xrab0cP2cv-3" target="0hItoibZD7xrab0cP2cv-1">
          <mxGeometry relative="1" as="geometry" />
        </mxCell>
        <mxCell id="0hItoibZD7xrab0cP2cv-3" value="Actor" style="shape=umlActor;verticalLabelPosition=bottom;verticalAlign=top;html=1;outlineConnect=0;" vertex="1" parent="1">
          <mxGeometry x="-1050" y="100" width="30" height="50" as="geometry" />
        </mxCell>
        <mxCell id="0hItoibZD7xrab0cP2cv-4" style="edgeStyle=none;rounded=0;orthogonalLoop=1;jettySize=auto;html=1;exitX=1;exitY=0.3333333333333333;exitDx=0;exitDy=0;exitPerimeter=0;entryX=0;entryY=0.5;entryDx=0;entryDy=0;entryPerimeter=0;" edge="1" parent="1" source="0hItoibZD7xrab0cP2cv-5" target="0hItoibZD7xrab0cP2cv-1">
          <mxGeometry relative="1" as="geometry" />
        </mxCell>
        <mxCell id="0hItoibZD7xrab0cP2cv-5" value="Actor" style="shape=umlActor;verticalLabelPosition=bottom;verticalAlign=top;html=1;outlineConnect=0;" vertex="1" parent="1">
          <mxGeometry x="-1050" y="200" width="30" height="50" as="geometry" />
        </mxCell>
        <mxCell id="0hItoibZD7xrab0cP2cv-6" style="edgeStyle=none;rounded=0;orthogonalLoop=1;jettySize=auto;html=1;exitX=1;exitY=0.3333333333333333;exitDx=0;exitDy=0;exitPerimeter=0;entryX=0;entryY=0.5;entryDx=0;entryDy=0;entryPerimeter=0;" edge="1" parent="1" source="0hItoibZD7xrab0cP2cv-7" target="0hItoibZD7xrab0cP2cv-1">
          <mxGeometry relative="1" as="geometry" />
        </mxCell>
        <mxCell id="0hItoibZD7xrab0cP2cv-7" value="Actor" style="shape=umlActor;verticalLabelPosition=bottom;verticalAlign=top;html=1;outlineConnect=0;" vertex="1" parent="1">
          <mxGeometry x="-1050" y="330" width="30" height="50" as="geometry" />
        </mxCell>
        <mxCell id="0hItoibZD7xrab0cP2cv-8" value="扣减请求1" style="text;html=1;strokeColor=none;fillColor=none;align=center;verticalAlign=middle;whiteSpace=wrap;rounded=0;" vertex="1" parent="1">
          <mxGeometry x="-970" y="130" width="60" height="20" as="geometry" />
        </mxCell>
        <mxCell id="0hItoibZD7xrab0cP2cv-9" value="扣减请求2" style="text;html=1;strokeColor=none;fillColor=none;align=center;verticalAlign=middle;whiteSpace=wrap;rounded=0;" vertex="1" parent="1">
          <mxGeometry x="-970" y="210" width="60" height="20" as="geometry" />
        </mxCell>
        <mxCell id="0hItoibZD7xrab0cP2cv-10" value="扣减请求n" style="text;html=1;strokeColor=none;fillColor=none;align=center;verticalAlign=middle;whiteSpace=wrap;rounded=0;" vertex="1" parent="1">
          <mxGeometry x="-970" y="320" width="60" height="20" as="geometry" />
        </mxCell>
        <mxCell id="0hItoibZD7xrab0cP2cv-11" value="" style="endArrow=none;dashed=1;html=1;dashPattern=1 3;strokeWidth=2;" edge="1" parent="1">
          <mxGeometry width="50" height="50" relative="1" as="geometry">
            <mxPoint x="-1035" y="313" as="sourcePoint" />
            <mxPoint x="-1035.5" y="283" as="targetPoint" />
          </mxGeometry>
        </mxCell>
        <mxCell id="0hItoibZD7xrab0cP2cv-12" value="" style="shape=flexArrow;endArrow=classic;html=1;" edge="1" parent="1">
          <mxGeometry width="50" height="50" relative="1" as="geometry">
            <mxPoint x="-690" y="250" as="sourcePoint" />
            <mxPoint x="-610" y="250" as="targetPoint" />
          </mxGeometry>
        </mxCell>
        <mxCell id="0hItoibZD7xrab0cP2cv-13" style="edgeStyle=orthogonalEdgeStyle;rounded=0;orthogonalLoop=1;jettySize=auto;html=1;exitX=1;exitY=0.5;exitDx=0;exitDy=0;exitPerimeter=0;entryX=0;entryY=0.5;entryDx=0;entryDy=0;entryPerimeter=0;endArrow=none;endFill=0;" edge="1" parent="1" source="0hItoibZD7xrab0cP2cv-14" target="0hItoibZD7xrab0cP2cv-17">
          <mxGeometry relative="1" as="geometry" />
        </mxCell>
        <mxCell id="0hItoibZD7xrab0cP2cv-14" value="子预算1" style="shape=cylinder3;whiteSpace=wrap;html=1;boundedLbl=1;backgroundOutline=1;size=15;" vertex="1" parent="1">
          <mxGeometry x="-330" y="110" width="100" height="70" as="geometry" />
        </mxCell>
        <mxCell id="0hItoibZD7xrab0cP2cv-15" style="edgeStyle=orthogonalEdgeStyle;rounded=0;orthogonalLoop=1;jettySize=auto;html=1;exitX=1;exitY=0.5;exitDx=0;exitDy=0;exitPerimeter=0;entryX=0;entryY=0.5;entryDx=0;entryDy=0;entryPerimeter=0;endArrow=none;endFill=0;" edge="1" parent="1" source="0hItoibZD7xrab0cP2cv-16" target="0hItoibZD7xrab0cP2cv-17">
          <mxGeometry relative="1" as="geometry">
            <mxPoint x="-120" y="270" as="targetPoint" />
          </mxGeometry>
        </mxCell>
        <mxCell id="0hItoibZD7xrab0cP2cv-16" value="子预算2" style="shape=cylinder3;whiteSpace=wrap;html=1;boundedLbl=1;backgroundOutline=1;size=15;" vertex="1" parent="1">
          <mxGeometry x="-330" y="220" width="100" height="70" as="geometry" />
        </mxCell>
        <mxCell id="0hItoibZD7xrab0cP2cv-17" value="总预算" style="shape=cylinder3;whiteSpace=wrap;html=1;boundedLbl=1;backgroundOutline=1;size=15;" vertex="1" parent="1">
          <mxGeometry x="-120" y="220" width="100" height="70" as="geometry" />
        </mxCell>
        <mxCell id="0hItoibZD7xrab0cP2cv-18" style="edgeStyle=orthogonalEdgeStyle;rounded=0;orthogonalLoop=1;jettySize=auto;html=1;exitX=1;exitY=0.5;exitDx=0;exitDy=0;exitPerimeter=0;entryX=0;entryY=0.5;entryDx=0;entryDy=0;entryPerimeter=0;endArrow=none;endFill=0;" edge="1" parent="1" source="0hItoibZD7xrab0cP2cv-19" target="0hItoibZD7xrab0cP2cv-17">
          <mxGeometry relative="1" as="geometry" />
        </mxCell>
        <mxCell id="0hItoibZD7xrab0cP2cv-19" value="子预算n" style="shape=cylinder3;whiteSpace=wrap;html=1;boundedLbl=1;backgroundOutline=1;size=15;" vertex="1" parent="1">
          <mxGeometry x="-330" y="330" width="100" height="70" as="geometry" />
        </mxCell>
        <mxCell id="0hItoibZD7xrab0cP2cv-20" style="edgeStyle=none;rounded=0;orthogonalLoop=1;jettySize=auto;html=1;exitX=1;exitY=0.3333333333333333;exitDx=0;exitDy=0;exitPerimeter=0;entryX=0;entryY=0.5;entryDx=0;entryDy=0;entryPerimeter=0;endArrow=classic;endFill=1;" edge="1" parent="1" source="0hItoibZD7xrab0cP2cv-21" target="0hItoibZD7xrab0cP2cv-14">
          <mxGeometry relative="1" as="geometry" />
        </mxCell>
        <mxCell id="0hItoibZD7xrab0cP2cv-21" value="Actor" style="shape=umlActor;verticalLabelPosition=bottom;verticalAlign=top;html=1;outlineConnect=0;" vertex="1" parent="1">
          <mxGeometry x="-520" y="40" width="30" height="50" as="geometry" />
        </mxCell>
        <mxCell id="0hItoibZD7xrab0cP2cv-22" style="edgeStyle=none;rounded=0;orthogonalLoop=1;jettySize=auto;html=1;exitX=1;exitY=0.3333333333333333;exitDx=0;exitDy=0;exitPerimeter=0;entryX=0;entryY=0.5;entryDx=0;entryDy=0;entryPerimeter=0;endArrow=classic;endFill=1;" edge="1" parent="1" source="0hItoibZD7xrab0cP2cv-23" target="0hItoibZD7xrab0cP2cv-14">
          <mxGeometry relative="1" as="geometry" />
        </mxCell>
        <mxCell id="0hItoibZD7xrab0cP2cv-23" value="Actor" style="shape=umlActor;verticalLabelPosition=bottom;verticalAlign=top;html=1;outlineConnect=0;" vertex="1" parent="1">
          <mxGeometry x="-520" y="130" width="30" height="50" as="geometry" />
        </mxCell>
        <mxCell id="0hItoibZD7xrab0cP2cv-24" style="edgeStyle=none;rounded=0;orthogonalLoop=1;jettySize=auto;html=1;exitX=1;exitY=0.3333333333333333;exitDx=0;exitDy=0;exitPerimeter=0;endArrow=classic;endFill=1;" edge="1" parent="1" source="0hItoibZD7xrab0cP2cv-25">
          <mxGeometry relative="1" as="geometry">
            <mxPoint x="-330" y="260" as="targetPoint" />
          </mxGeometry>
        </mxCell>
        <mxCell id="0hItoibZD7xrab0cP2cv-25" value="Actor" style="shape=umlActor;verticalLabelPosition=bottom;verticalAlign=top;html=1;outlineConnect=0;" vertex="1" parent="1">
          <mxGeometry x="-520" y="210" width="30" height="50" as="geometry" />
        </mxCell>
        <mxCell id="0hItoibZD7xrab0cP2cv-26" style="edgeStyle=none;rounded=0;orthogonalLoop=1;jettySize=auto;html=1;exitX=1;exitY=0.3333333333333333;exitDx=0;exitDy=0;exitPerimeter=0;endArrow=classic;endFill=1;" edge="1" parent="1" source="0hItoibZD7xrab0cP2cv-27">
          <mxGeometry relative="1" as="geometry">
            <mxPoint x="-330" y="260" as="targetPoint" />
          </mxGeometry>
        </mxCell>
        <mxCell id="0hItoibZD7xrab0cP2cv-27" value="Actor" style="shape=umlActor;verticalLabelPosition=bottom;verticalAlign=top;html=1;outlineConnect=0;" vertex="1" parent="1">
          <mxGeometry x="-520" y="300" width="30" height="50" as="geometry" />
        </mxCell>
        <mxCell id="0hItoibZD7xrab0cP2cv-28" style="edgeStyle=none;rounded=0;orthogonalLoop=1;jettySize=auto;html=1;exitX=1;exitY=0.3333333333333333;exitDx=0;exitDy=0;exitPerimeter=0;entryX=0;entryY=0.5;entryDx=0;entryDy=0;entryPerimeter=0;endArrow=classic;endFill=1;" edge="1" parent="1" source="0hItoibZD7xrab0cP2cv-29" target="0hItoibZD7xrab0cP2cv-19">
          <mxGeometry relative="1" as="geometry" />
        </mxCell>
        <mxCell id="0hItoibZD7xrab0cP2cv-29" value="Actor" style="shape=umlActor;verticalLabelPosition=bottom;verticalAlign=top;html=1;outlineConnect=0;" vertex="1" parent="1">
          <mxGeometry x="-520" y="380" width="30" height="50" as="geometry" />
        </mxCell>
        <mxCell id="0hItoibZD7xrab0cP2cv-30" style="edgeStyle=none;rounded=0;orthogonalLoop=1;jettySize=auto;html=1;exitX=1;exitY=0.3333333333333333;exitDx=0;exitDy=0;exitPerimeter=0;entryX=0;entryY=0.5;entryDx=0;entryDy=0;entryPerimeter=0;endArrow=classic;endFill=1;" edge="1" parent="1" source="0hItoibZD7xrab0cP2cv-31" target="0hItoibZD7xrab0cP2cv-19">
          <mxGeometry relative="1" as="geometry" />
        </mxCell>
        <mxCell id="0hItoibZD7xrab0cP2cv-31" value="Actor" style="shape=umlActor;verticalLabelPosition=bottom;verticalAlign=top;html=1;outlineConnect=0;" vertex="1" parent="1">
          <mxGeometry x="-520" y="470" width="30" height="50" as="geometry" />
        </mxCell>
        <mxCell id="0hItoibZD7xrab0cP2cv-32" value="......" style="text;html=1;strokeColor=none;fillColor=none;align=center;verticalAlign=middle;whiteSpace=wrap;rounded=0;" vertex="1" parent="1">
          <mxGeometry x="-300" y="300" width="40" height="20" as="geometry" />
        </mxCell>
        <mxCell id="0hItoibZD7xrab0cP2cv-33" value="" style="edgeStyle=orthogonalEdgeStyle;rounded=0;orthogonalLoop=1;jettySize=auto;html=1;" edge="1" parent="1" source="0hItoibZD7xrab0cP2cv-34" target="0hItoibZD7xrab0cP2cv-45">
          <mxGeometry relative="1" as="geometry" />
        </mxCell>
        <mxCell id="0hItoibZD7xrab0cP2cv-34" value="" style="shape=loopLimit;whiteSpace=wrap;html=1;" vertex="1" parent="1">
          <mxGeometry x="-1197" y="820" width="287" height="90" as="geometry" />
        </mxCell>
        <mxCell id="0hItoibZD7xrab0cP2cv-35" value="" style="edgeStyle=orthogonalEdgeStyle;rounded=0;orthogonalLoop=1;jettySize=auto;html=1;" edge="1" parent="1" source="0hItoibZD7xrab0cP2cv-36" target="0hItoibZD7xrab0cP2cv-38">
          <mxGeometry relative="1" as="geometry" />
        </mxCell>
        <mxCell id="0hItoibZD7xrab0cP2cv-36" value="读取分库信息" style="rounded=0;whiteSpace=wrap;html=1;" vertex="1" parent="1">
          <mxGeometry x="-1103" y="650" width="99" height="40" as="geometry" />
        </mxCell>
        <mxCell id="0hItoibZD7xrab0cP2cv-37" value="" style="edgeStyle=orthogonalEdgeStyle;rounded=0;orthogonalLoop=1;jettySize=auto;html=1;entryX=0.5;entryY=0;entryDx=0;entryDy=0;" edge="1" parent="1" source="0hItoibZD7xrab0cP2cv-38">
          <mxGeometry relative="1" as="geometry">
            <mxPoint x="-1053.5" y="819.9999999999998" as="targetPoint" />
          </mxGeometry>
        </mxCell>
        <mxCell id="0hItoibZD7xrab0cP2cv-38" value="&lt;span&gt;计算总预算所在的DB及分桶数&lt;/span&gt;&lt;br&gt;&lt;span&gt;创建总预算记录&lt;/span&gt;" style="rounded=0;whiteSpace=wrap;html=1;" vertex="1" parent="1">
          <mxGeometry x="-1143" y="730" width="179" height="40" as="geometry" />
        </mxCell>
        <mxCell id="0hItoibZD7xrab0cP2cv-39" value="" style="edgeStyle=orthogonalEdgeStyle;rounded=0;orthogonalLoop=1;jettySize=auto;html=1;" edge="1" parent="1" source="0hItoibZD7xrab0cP2cv-40" target="0hItoibZD7xrab0cP2cv-44">
          <mxGeometry relative="1" as="geometry" />
        </mxCell>
        <mxCell id="0hItoibZD7xrab0cP2cv-40" value="创建" style="rounded=1;whiteSpace=wrap;html=1;" vertex="1" parent="1">
          <mxGeometry x="-1092.25" y="470" width="79" height="30" as="geometry" />
        </mxCell>
        <mxCell id="0hItoibZD7xrab0cP2cv-41" value="循环遍历分库" style="text;html=1;resizable=0;autosize=1;align=center;verticalAlign=middle;points=[];fillColor=none;strokeColor=none;rounded=0;" vertex="1" parent="1">
          <mxGeometry x="-1033.5" y="790" width="90" height="20" as="geometry" />
        </mxCell>
        <mxCell id="0hItoibZD7xrab0cP2cv-42" value="创建子预算记录" style="rounded=0;whiteSpace=wrap;html=1;" vertex="1" parent="1">
          <mxGeometry x="-1109.5" y="850" width="112" height="30" as="geometry" />
        </mxCell>
        <mxCell id="0hItoibZD7xrab0cP2cv-43" value="" style="edgeStyle=orthogonalEdgeStyle;rounded=0;orthogonalLoop=1;jettySize=auto;html=1;" edge="1" parent="1" source="0hItoibZD7xrab0cP2cv-44" target="0hItoibZD7xrab0cP2cv-36">
          <mxGeometry relative="1" as="geometry" />
        </mxCell>
        <mxCell id="0hItoibZD7xrab0cP2cv-44" value="预算创建者ID&lt;br&gt;预算总数&lt;br&gt;预算份数&lt;br&gt;外部业务号" style="shape=parallelogram;perimeter=parallelogramPerimeter;whiteSpace=wrap;html=1;fixedSize=1;" vertex="1" parent="1">
          <mxGeometry x="-1109.5" y="540" width="113.5" height="60" as="geometry" />
        </mxCell>
        <mxCell id="0hItoibZD7xrab0cP2cv-45" value="结束" style="rounded=1;whiteSpace=wrap;html=1;" vertex="1" parent="1">
          <mxGeometry x="-1093" y="960" width="79" height="30" as="geometry" />
        </mxCell>
      </root>
    </mxGraphModel>
  </diagram>
</mxfile>
